<?xml version="1.0" encoding="UTF-8" standalone="no"?>
<!-- Created with Inkscape (http://www.inkscape.org/) -->

<svg
   xmlns:dc="http://purl.org/dc/elements/1.1/"
   xmlns:cc="http://creativecommons.org/ns#"
   xmlns:rdf="http://www.w3.org/1999/02/22-rdf-syntax-ns#"
   xmlns:svg="http://www.w3.org/2000/svg"
   xmlns="http://www.w3.org/2000/svg"
   xmlns:sodipodi="http://sodipodi.sourceforge.net/DTD/sodipodi-0.dtd"
   xmlns:inkscape="http://www.inkscape.org/namespaces/inkscape"
   width="210mm"
   height="297mm"
   viewBox="0 0 744.09448819 1052.3622047"
   id="svg2"
   version="1.1"
   inkscape:version="0.91 r13725"
   sodipodi:docname="letter.svg">
  <defs
     id="defs4" />
  <sodipodi:namedview
     id="base"
     pagecolor="#ffffff"
     bordercolor="#666666"
     borderopacity="1.0"
     inkscape:pageopacity="0.0"
     inkscape:pageshadow="2"
     inkscape:zoom="0.730737"
     inkscape:cx="372.04724"
     inkscape:cy="526.1811"
     inkscape:document-units="px"
     inkscape:current-layer="layer1"
     showgrid="false"
     inkscape:window-width="1168"
     inkscape:window-height="936"
     inkscape:window-x="732"
     inkscape:window-y="46"
     inkscape:window-maximized="0"
     inkscape:snap-text-baseline="true" />
  <metadata
     id="metadata7">
    <rdf:RDF>
      <cc:Work
         rdf:about="">
        <dc:format>image/svg+xml</dc:format>
        <dc:type
           rdf:resource="http://purl.org/dc/dcmitype/StillImage" />
        <dc:title />
      </cc:Work>
    </rdf:RDF>
  </metadata>
  <g
     inkscape:label="Layer 1"
     inkscape:groupmode="layer"
     id="layer1">
    <text
       xml:space="preserve"
       style="font-style:normal;font-weight:normal;font-size:180px;line-height:125%;font-family:'Times New Roman';letter-spacing:0px;word-spacing:0px;fill:#820000;fill-opacity:1;stroke:#000000;stroke-width:1px;stroke-linecap:butt;stroke-linejoin:miter;stroke-opacity:0.2238806;-inkscape-font-specification:'Times New Roman, Normal';font-stretch:normal;font-variant:normal;text-anchor:start;text-align:start;writing-mode:lr;"
       x="20.527222"
       y="540.55017"
       id="text4258"
       sodipodi:linespacing="125%"><tspan
         sodipodi:role="line"
         id="tspan4262" /></text>
    <g
       style="font-style:normal;font-variant:normal;font-weight:normal;font-stretch:normal;font-size:180px;line-height:125%;font-family:'Times New Roman';-inkscape-font-specification:'Times New Roman, Normal';text-align:start;letter-spacing:0px;word-spacing:0px;writing-mode:lr-tb;text-anchor:start;fill:#820000;fill-opacity:1;stroke:#000000;stroke-width:1px;stroke-linecap:butt;stroke-linejoin:miter;stroke-opacity:0.2238806"
       id="text4264"
       transform="translate(-31.475072,-124.53181)">
      <path
         d="m 136.99395,132.6209 1.31836,27.94921 -3.33985,0 q -0.9668,-7.38281 -2.63672,-10.54687 -2.72461,-5.09766 -7.29492,-7.4707 -4.48242,-2.46094 -11.86523,-2.46094 l -16.787113,0 0,91.05469 q 0,10.98632 2.373047,13.71093 3.339846,3.69141 10.283206,3.69141 l 4.13086,0 0,3.25195 -50.537113,0 0,-3.25195 4.21875,0 q 7.558594,0 10.722657,-4.57031 1.933593,-2.8125 1.933593,-12.83203 l 0,-91.05469 -14.326172,0 q -8.349609,0 -11.865234,1.23047 -4.570312,1.66992 -7.822266,6.41601 -3.251953,4.7461 -3.867187,12.83203 l -3.339844,0 1.40625,-27.94921 97.294926,0 z"
         id="path4364"
         inkscape:connector-curvature="0"
         style="fill:#820000;fill-opacity:1;stroke:#000000;stroke-opacity:0.2238806" />
      <path
         d="m 172.50176,126.82011 0,58.88672 q 9.75586,-10.72265 15.46875,-13.71093 5.71289,-3.07618 11.42578,-3.07618 6.85547,0 11.77734,3.7793 4.92188,3.7793 7.29493,11.86523 1.66992,5.625 1.66992,20.56641 l 0,28.47656 q 0,7.64649 1.23047,10.45899 0.8789,2.10937 2.98828,3.33984 2.10937,1.23047 7.73437,1.23047 l 0,3.16406 -39.55078,0 0,-3.16406 1.8457,0 q 5.625,0 7.82227,-1.66992 2.19727,-1.75781 3.07617,-5.09766 0.26367,-1.40625 0.26367,-8.26172 l 0,-28.47656 q 0,-13.18359 -1.40625,-17.31445 -1.31836,-4.13086 -4.30664,-6.15235 -2.98828,-2.10937 -7.20703,-2.10937 -4.30664,0 -8.96484,2.28516 -4.65821,2.28515 -11.16211,9.22851 l 0,42.53906 q 0,8.26172 0.8789,10.28321 0.9668,2.02148 3.42774,3.42773 2.54883,1.31836 8.70117,1.31836 l 0,3.16406 -39.90234,0 0,-3.16406 q 5.36133,0 8.4375,-1.66992 1.75781,-0.87891 2.8125,-3.33985 1.05468,-2.46093 1.05468,-10.01953 l 0,-72.86132 q 0,-13.79883 -0.70312,-16.9629 -0.61523,-3.16406 -2.02148,-4.30664 -1.31836,-1.14257 -3.60352,-1.14257 -1.8457,0 -5.97656,1.40625 l -1.23047,-3.07618 24.08203,-9.84375 4.04297,0 z"
         id="path4366"
         inkscape:connector-curvature="0"
         style="fill:#820000;fill-opacity:1;stroke:#000000;stroke-opacity:0.2238806" />
      <path
         d="m 259.3377,126.82011 q 3.6914,0 6.24023,2.63672 2.63672,2.54883 2.63672,6.24024 0,3.6914 -2.63672,6.32812 -2.54883,2.63672 -6.24023,2.63672 -3.69141,0 -6.32813,-2.63672 -2.63672,-2.63672 -2.63672,-6.32812 0,-3.69141 2.54883,-6.24024 2.63672,-2.63672 6.41602,-2.63672 z m 7.29492,42.09961 0,64.6875 q 0,7.5586 1.05469,10.10743 1.14257,2.46093 3.25195,3.6914 2.19726,1.23047 7.91015,1.23047 l 0,3.16406 -39.11132,0 0,-3.16406 q 5.88867,0 7.91015,-1.14258 2.02149,-1.14258 3.16407,-3.77929 1.23046,-2.63672 1.23046,-10.10743 l 0,-31.02539 q 0,-13.0957 -0.79101,-16.96289 -0.61524,-2.8125 -1.9336,-3.86719 -1.31835,-1.14257 -3.60351,-1.14257 -2.46094,0 -5.97656,1.31836 l -1.23047,-3.16407 24.25781,-9.84375 3.86719,0 z"
         id="path4368"
         inkscape:connector-curvature="0"
         style="fill:#820000;fill-opacity:1;stroke:#000000;stroke-opacity:0.2238806" />
      <path
         d="m 340.81231,168.91972 0,27.42188 -2.9004,0 q -3.33984,-12.91992 -8.61328,-17.57813 -5.18554,-4.6582 -13.27148,-4.6582 -6.15234,0 -9.93164,3.25195 -3.7793,3.25196 -3.7793,7.20703 0,4.92188 2.8125,8.4375 2.72461,3.60352 11.07422,7.64649 l 12.83203,6.24023 q 17.8418,8.70118 17.8418,22.93946 0,10.98632 -8.34961,17.7539 -8.26172,6.67969 -18.54492,6.67969 -7.38282,0 -16.875,-2.63672 -2.90039,-0.8789 -4.7461,-0.8789 -2.02148,0 -3.16406,2.28515 l -2.90039,0 0,-28.74023 2.90039,0 q 2.46094,12.30468 9.4043,18.54492 6.94336,6.24023 15.55664,6.24023 6.06445,0 9.84375,-3.51562 3.86719,-3.60352 3.86719,-8.61328 0,-6.06446 -4.30664,-10.19532 -4.21875,-4.13085 -16.9629,-10.45898 -12.74414,-6.32812 -16.69921,-11.42578 -3.95508,-5.00977 -3.95508,-12.65625 0,-9.93164 6.76758,-16.61133 6.85546,-6.67969 17.66601,-6.67969 4.7461,0 11.51367,2.02149 4.48243,1.31836 5.97657,1.31836 1.40625,0 2.19726,-0.61524 0.79102,-0.61523 1.8457,-2.72461 l 2.9004,0 z"
         id="path4370"
         inkscape:connector-curvature="0"
         style="fill:#820000;fill-opacity:1;stroke:#000000;stroke-opacity:0.2238806" />
      <path
         d="m 424.22051,126.82011 q 3.6914,0 6.24023,2.63672 2.63672,2.54883 2.63672,6.24024 0,3.6914 -2.63672,6.32812 -2.54883,2.63672 -6.24023,2.63672 -3.69141,0 -6.32813,-2.63672 -2.63672,-2.63672 -2.63672,-6.32812 0,-3.69141 2.54883,-6.24024 2.63672,-2.63672 6.41602,-2.63672 z m 7.29492,42.09961 0,64.6875 q 0,7.5586 1.05469,10.10743 1.14258,2.46093 3.25195,3.6914 2.19727,1.23047 7.91016,1.23047 l 0,3.16406 -39.11133,0 0,-3.16406 q 5.88867,0 7.91016,-1.14258 2.02148,-1.14258 3.16406,-3.77929 1.23047,-2.63672 1.23047,-10.10743 l 0,-31.02539 q 0,-13.0957 -0.79102,-16.96289 -0.61523,-2.8125 -1.93359,-3.86719 -1.31836,-1.14257 -3.60352,-1.14257 -2.46094,0 -5.97656,1.31836 l -1.23047,-3.16407 24.25781,-9.84375 3.86719,0 z"
         id="path4372"
         inkscape:connector-curvature="0"
         style="fill:#820000;fill-opacity:1;stroke:#000000;stroke-opacity:0.2238806" />
      <path
         d="m 505.69512,168.91972 0,27.42188 -2.90039,0 q -3.33985,-12.91992 -8.61328,-17.57813 -5.18555,-4.6582 -13.27149,-4.6582 -6.15234,0 -9.93164,3.25195 -3.7793,3.25196 -3.7793,7.20703 0,4.92188 2.8125,8.4375 2.72461,3.60352 11.07422,7.64649 l 12.83203,6.24023 q 17.8418,8.70118 17.8418,22.93946 0,10.98632 -8.34961,17.7539 -8.26172,6.67969 -18.54492,6.67969 -7.38281,0 -16.875,-2.63672 -2.90039,-0.8789 -4.74609,-0.8789 -2.02149,0 -3.16407,2.28515 l -2.90039,0 0,-28.74023 2.90039,0 q 2.46094,12.30468 9.4043,18.54492 6.94336,6.24023 15.55664,6.24023 6.06445,0 9.84375,-3.51562 3.86719,-3.60352 3.86719,-8.61328 0,-6.06446 -4.30664,-10.19532 -4.21875,-4.13085 -16.96289,-10.45898 -12.74414,-6.32812 -16.69922,-11.42578 -3.95508,-5.00977 -3.95508,-12.65625 0,-9.93164 6.76758,-16.61133 6.85547,-6.67969 17.66601,-6.67969 4.7461,0 11.51368,2.02149 4.48242,1.31836 5.97656,1.31836 1.40625,0 2.19726,-0.61524 0.79102,-0.61523 1.84571,-2.72461 l 2.90039,0 z"
         id="path4374"
         inkscape:connector-curvature="0"
         style="fill:#820000;fill-opacity:1;stroke:#000000;stroke-opacity:0.2238806" />
      <path
         d="m 614.24004,240.19902 q -12.39258,9.58008 -15.55664,11.07422 -4.74609,2.19726 -10.10742,2.19726 -8.34961,0 -13.79883,-5.71289 -5.36133,-5.71289 -5.36133,-15.02929 0,-5.88867 2.63672,-10.19532 3.60352,-5.97656 12.48047,-11.25 8.96484,-5.27343 29.70703,-12.83203 l 0,-3.16406 q 0,-12.04101 -3.86719,-16.52344 -3.77929,-4.48242 -11.07422,-4.48242 -5.53711,0 -8.78906,2.98828 -3.33984,2.98828 -3.33984,6.85547 l 0.17578,5.09766 q 0,4.04297 -2.10938,6.24023 -2.02148,2.19727 -5.36132,2.19727 -3.25196,0 -5.36133,-2.28516 -2.02149,-2.28515 -2.02149,-6.24023 0,-7.5586 7.73438,-13.88672 7.73437,-6.32813 21.70898,-6.32813 10.72266,0 17.57813,3.60352 5.18554,2.72461 7.64648,8.52539 1.58203,3.7793 1.58203,15.46875 l 0,27.33398 q 0,11.51368 0.43946,14.15039 0.43945,2.54883 1.40625,3.42774 1.05468,0.87891 2.37304,0.87891 1.40625,0 2.46094,-0.61524 1.8457,-1.14258 7.11914,-6.41601 l 0,4.92187 q -9.84375,13.18359 -18.80859,13.18359 -4.30664,0 -6.85547,-2.98828 -2.54883,-2.98828 -2.63672,-10.19531 z m 0,-5.71289 0,-30.67383 q -13.27148,5.27344 -17.13867,7.4707 -6.94336,3.86719 -9.93164,8.08594 -2.98828,4.21875 -2.98828,9.22852 0,6.32812 3.77929,10.54687 3.7793,4.13086 8.70117,4.13086 6.67969,0 17.57813,-8.78906 z"
         id="path4376"
         inkscape:connector-curvature="0"
         style="fill:#820000;fill-opacity:1;stroke:#000000;stroke-opacity:0.2238806" />
      <path
         d="m 61.847462,369.83769 0,26.45508 18.808593,0 0,6.15234 -18.808593,0 0,52.20704 q 0,7.82226 2.197265,10.54687 2.285157,2.72461 5.800782,2.72461 2.90039,0 5.625,-1.75781 2.724609,-1.84571 4.21875,-5.36133 l 3.427734,0 q -3.076172,8.61328 -8.701172,13.00781 -5.625,4.30664 -11.601562,4.30664 -4.042969,0 -7.910157,-2.19726 -3.867187,-2.28516 -5.71289,-6.41602 -1.845703,-4.21875 -1.845703,-12.91992 l 0,-54.14063 -12.744141,0 0,-2.90039 q 4.833984,-1.93359 9.84375,-6.5039 5.097656,-4.65821 9.052734,-10.98633 2.021485,-3.33984 5.625,-12.2168 l 2.72461,0 z"
         id="path4378"
         inkscape:connector-curvature="0"
         style="fill:#820000;fill-opacity:1;stroke:#000000;stroke-opacity:0.2238806" />
      <path
         d="m 101.92559,426.61504 q -0.0879,17.92968 8.70117,28.125 8.78906,10.19531 20.6543,10.19531 7.91015,0 13.71093,-4.30664 5.88867,-4.39453 9.84375,-14.94141 l 2.72461,1.75781 q -1.8457,12.04102 -10.72265,21.97266 -8.87696,9.84375 -22.23633,9.84375 -14.50196,0 -24.873049,-11.25 -10.283203,-11.33789 -10.283203,-30.41016 0,-20.65429 10.546875,-32.16796 10.634767,-11.60157 26.630857,-11.60157 13.53516,0 22.23633,8.96485 8.70117,8.87695 8.70117,23.81836 l -55.63476,0 z m 0,-5.09766 37.26562,0 q -0.43945,-7.73438 -1.8457,-10.89844 -2.19727,-4.92187 -6.5918,-7.73437 -4.30664,-2.8125 -9.05273,-2.8125 -7.29492,0 -13.09571,5.71289 -5.71289,5.625 -6.67968,15.73242 z"
         id="path4380"
         inkscape:connector-curvature="0"
         style="fill:#820000;fill-opacity:1;stroke:#000000;stroke-opacity:0.2238806" />
      <path
         d="m 220.22637,393.91972 0,27.42188 -2.90039,0 q -3.33985,-12.91992 -8.61328,-17.57813 -5.18555,-4.6582 -13.27149,-4.6582 -6.15234,0 -9.93164,3.25195 -3.7793,3.25196 -3.7793,7.20703 0,4.92188 2.8125,8.4375 2.72461,3.60352 11.07422,7.64649 l 12.83203,6.24023 q 17.8418,8.70118 17.8418,22.93946 0,10.98632 -8.34961,17.7539 -8.26172,6.67969 -18.54492,6.67969 -7.38281,0 -16.875,-2.63672 -2.90039,-0.8789 -4.74609,-0.8789 -2.02149,0 -3.16407,2.28515 l -2.90039,0 0,-28.74023 2.90039,0 q 2.46094,12.30468 9.4043,18.54492 6.94336,6.24023 15.55664,6.24023 6.06445,0 9.84375,-3.51562 3.86719,-3.60352 3.86719,-8.61328 0,-6.06446 -4.30664,-10.19532 -4.21875,-4.13085 -16.96289,-10.45898 -12.74414,-6.32812 -16.69922,-11.42578 -3.95508,-5.00977 -3.95508,-12.65625 0,-9.93164 6.76758,-16.61133 6.85547,-6.67969 17.66601,-6.67969 4.7461,0 11.51368,2.02149 4.48242,1.31836 5.97656,1.31836 1.40625,0 2.19726,-0.61524 0.79102,-0.61523 1.84571,-2.72461 l 2.90039,0 z"
         id="path4382"
         inkscape:connector-curvature="0"
         style="fill:#820000;fill-opacity:1;stroke:#000000;stroke-opacity:0.2238806" />
      <path
         d="m 261.53496,369.83769 0,26.45508 18.8086,0 0,6.15234 -18.8086,0 0,52.20704 q 0,7.82226 2.19727,10.54687 2.28515,2.72461 5.80078,2.72461 2.90039,0 5.625,-1.75781 2.72461,-1.84571 4.21875,-5.36133 l 3.42773,0 q -3.07617,8.61328 -8.70117,13.00781 -5.625,4.30664 -11.60156,4.30664 -4.04297,0 -7.91016,-2.19726 -3.86719,-2.28516 -5.71289,-6.41602 -1.8457,-4.21875 -1.8457,-12.91992 l 0,-54.14063 -12.74414,0 0,-2.90039 q 4.83398,-1.93359 9.84375,-6.5039 5.09765,-4.65821 9.05273,-10.98633 2.02149,-3.33984 5.625,-12.2168 l 2.72461,0 z"
         id="path4384"
         inkscape:connector-curvature="0"
         style="fill:#820000;fill-opacity:1;stroke:#000000;stroke-opacity:0.2238806" />
      <path
         d="m 304.95293,459.7498 q 4.13086,0 6.94336,2.90039 2.8125,2.8125 2.8125,6.85547 0,4.04297 -2.90039,6.94336 -2.8125,2.8125 -6.85547,2.8125 -4.04297,0 -6.94336,-2.8125 -2.8125,-2.90039 -2.8125,-6.94336 0,-4.13086 2.8125,-6.94336 2.90039,-2.8125 6.94336,-2.8125 z"
         id="path4386"
         inkscape:connector-curvature="0"
         style="fill:#820000;fill-opacity:1;stroke:#000000;stroke-opacity:0.2238806" />
      <path
         d="m 427.99981,473.54863 0,3.25195 -51.06446,0 0,-3.25195 4.21875,0 q 7.38281,0 10.72266,-4.30664 2.10937,-2.8125 2.10937,-13.53516 l 0,-76.99218 q 0,-9.05274 -1.14257,-11.95313 -0.87891,-2.19727 -3.60352,-3.7793 -3.86719,-2.10937 -8.08594,-2.10937 l -4.21875,0 0,-3.25195 51.06446,0 0,3.25195 -4.30665,0 q -7.29492,0 -10.63476,4.30664 -2.19727,2.8125 -2.19727,13.53516 l 0,76.99218 q 0,9.05274 1.14258,11.95313 0.87891,2.19726 3.69141,3.77929 3.77929,2.10938 7.99804,2.10938 l 4.30665,0 z"
         id="path4388"
         inkscape:connector-curvature="0"
         style="fill:#820000;fill-opacity:1;stroke:#000000;stroke-opacity:0.2238806" />
      <path
         d="m 461.57402,369.83769 0,26.45508 18.8086,0 0,6.15234 -18.8086,0 0,52.20704 q 0,7.82226 2.19727,10.54687 2.28516,2.72461 5.80078,2.72461 2.90039,0 5.625,-1.75781 2.72461,-1.84571 4.21875,-5.36133 l 3.42774,0 q -3.07618,8.61328 -8.70118,13.00781 -5.625,4.30664 -11.60156,4.30664 -4.04297,0 -7.91016,-2.19726 -3.86718,-2.28516 -5.71289,-6.41602 -1.8457,-4.21875 -1.8457,-12.91992 l 0,-54.14063 -12.74414,0 0,-2.90039 q 4.83398,-1.93359 9.84375,-6.5039 5.09766,-4.65821 9.05273,-10.98633 2.02149,-3.33984 5.625,-12.2168 l 2.72461,0 z"
         id="path4390"
         inkscape:connector-curvature="0"
         style="fill:#820000;fill-opacity:1;stroke:#000000;stroke-opacity:0.2238806" />
      <path
         d="m 553.59551,351.82011 q 3.6914,0 6.24023,2.63672 2.63672,2.54883 2.63672,6.24024 0,3.6914 -2.63672,6.32812 -2.54883,2.63672 -6.24023,2.63672 -3.69141,0 -6.32813,-2.63672 -2.63672,-2.63672 -2.63672,-6.32812 0,-3.69141 2.54883,-6.24024 2.63672,-2.63672 6.41602,-2.63672 z m 7.29492,42.09961 0,64.6875 q 0,7.5586 1.05469,10.10743 1.14258,2.46093 3.25195,3.6914 2.19727,1.23047 7.91016,1.23047 l 0,3.16406 -39.11133,0 0,-3.16406 q 5.88867,0 7.91016,-1.14258 2.02148,-1.14258 3.16406,-3.77929 1.23047,-2.63672 1.23047,-10.10743 l 0,-31.02539 q 0,-13.0957 -0.79102,-16.96289 -0.61523,-2.8125 -1.93359,-3.86719 -1.31836,-1.14257 -3.60352,-1.14257 -2.46094,0 -5.97656,1.31836 l -1.23047,-3.16407 24.25781,-9.84375 3.86719,0 z"
         id="path4392"
         inkscape:connector-curvature="0"
         style="fill:#820000;fill-opacity:1;stroke:#000000;stroke-opacity:0.2238806" />
      <path
         d="m 635.07012,393.91972 0,27.42188 -2.90039,0 q -3.33985,-12.91992 -8.61328,-17.57813 -5.18555,-4.6582 -13.27149,-4.6582 -6.15234,0 -9.93164,3.25195 -3.7793,3.25196 -3.7793,7.20703 0,4.92188 2.8125,8.4375 2.72461,3.60352 11.07422,7.64649 l 12.83203,6.24023 q 17.8418,8.70118 17.8418,22.93946 0,10.98632 -8.34961,17.7539 -8.26172,6.67969 -18.54492,6.67969 -7.38281,0 -16.875,-2.63672 -2.90039,-0.8789 -4.74609,-0.8789 -2.02149,0 -3.16407,2.28515 l -2.90039,0 0,-28.74023 2.90039,0 q 2.46094,12.30468 9.4043,18.54492 6.94336,6.24023 15.55664,6.24023 6.06445,0 9.84375,-3.51562 3.86719,-3.60352 3.86719,-8.61328 0,-6.06446 -4.30664,-10.19532 -4.21875,-4.13085 -16.96289,-10.45898 -12.74414,-6.32812 -16.69922,-11.42578 -3.95508,-5.00977 -3.95508,-12.65625 0,-9.93164 6.76758,-16.61133 6.85547,-6.67969 17.66601,-6.67969 4.7461,0 11.51368,2.02149 4.48242,1.31836 5.97656,1.31836 1.40625,0 2.19726,-0.61524 0.79102,-0.61523 1.84571,-2.72461 l 2.90039,0 z"
         id="path4394"
         inkscape:connector-curvature="0"
         style="fill:#820000;fill-opacity:1;stroke:#000000;stroke-opacity:0.2238806" />
      <path
         d="m 154.48418,701.80058 -31.81641,0 -40.341793,-55.72265 q -4.482422,0.17578 -7.294922,0.17578 -1.142578,0 -2.460937,0 -1.318359,-0.0879 -2.724609,-0.17578 l 0,34.6289 q 0,11.25 2.460937,13.97461 3.339844,3.86719 10.019531,3.86719 l 4.658203,0 0,3.25195 -51.064453,0 0,-3.25195 4.482422,0 q 7.558594,0 10.810547,-4.92188 1.845703,-2.7246 1.845703,-12.91992 l 0,-76.99218 q 0,-11.25 -2.460937,-13.97461 -3.427735,-3.86719 -10.195313,-3.86719 l -4.482422,0 0,-3.25195 43.417969,0 q 18.984375,0 27.949214,2.8125 9.05274,2.7246 15.29297,10.19531 6.32813,7.38281 6.32813,17.66601 0,10.98633 -7.20703,19.07227 -7.11914,8.08594 -22.14844,11.42578 l 24.60937,34.18945 q 8.4375,11.77735 14.50196,15.64453 6.06445,3.86719 15.82031,4.92188 l 0,3.25195 z M 69.845509,640.54082 q 1.669921,0 2.90039,0.0879 1.230469,0 2.021485,0 17.050781,0 25.664066,-7.38281 8.70117,-7.38282 8.70117,-18.8086 0,-11.16211 -7.03125,-18.10547 -6.943361,-7.03125 -18.457033,-7.03125 -5.097657,0 -13.798828,1.66992 l 0,49.57032 z"
         id="path4396"
         inkscape:connector-curvature="0"
         style="fill:#820000;fill-opacity:1;stroke:#000000;stroke-opacity:0.2238806" />
      <path
         d="m 190.69512,589.1248 0,47.10938 26.1914,0 q 10.19532,0 13.62305,-3.07618 4.57031,-4.04296 5.09766,-14.23828 l 3.25195,0 0,41.48438 -3.25195,0 q -1.23047,-8.70117 -2.46094,-11.16211 -1.58203,-3.07617 -5.18555,-4.83399 -3.60351,-1.75781 -11.07422,-1.75781 l -26.1914,0 0,39.28711 q 0,7.91016 0.70312,9.66797 0.70313,1.66992 2.46094,2.72461 1.75781,0.9668 6.67969,0.9668 l 20.21484,0 q 10.10742,0 14.67774,-1.40625 4.57031,-1.40625 8.78906,-5.53711 5.44922,-5.44922 11.16211,-16.43555 l 3.51562,0 -10.2832,29.88281 -91.8457,0 0,-3.25195 4.21875,0 q 4.21875,0 7.99804,-2.02148 2.8125,-1.40625 3.7793,-4.21875 1.05469,-2.8125 1.05469,-11.51368 l 0,-77.43164 q 0,-11.33789 -2.28516,-13.97461 -3.16406,-3.51562 -10.54687,-3.51562 l -4.21875,0 0,-3.25195 91.8457,0 1.31836,26.10351 -3.42774,0 q -1.8457,-9.4043 -4.13085,-12.91992 -2.19727,-3.51563 -6.5918,-5.36133 -3.51563,-1.31836 -12.39258,-1.31836 l -32.69531,0 z"
         id="path4398"
         inkscape:connector-curvature="0"
         style="fill:#820000;fill-opacity:1;stroke:#000000;stroke-opacity:0.2238806" />
      <path
         d="m 345.47051,661.89824 -46.14258,0 -8.08594,18.80859 q -2.98828,6.94336 -2.98828,10.3711 0,2.72461 2.54883,4.83398 2.63672,2.02149 11.25,2.63672 l 0,3.25195 -37.5293,0 0,-3.25195 q 7.47071,-1.31836 9.66797,-3.42773 4.48242,-4.21875 9.93164,-17.13868 l 41.92383,-98.08593 3.07617,0 41.48438,99.14062 q 5.00976,11.95313 9.05273,15.55664 4.13086,3.51563 11.42578,3.95508 l 0,3.25195 -47.02148,0 0,-3.25195 q 7.11914,-0.35156 9.58008,-2.37305 2.54882,-2.02148 2.54882,-4.92187 0,-3.86719 -3.51562,-12.2168 l -7.20703,-17.13867 z m -2.46094,-6.50391 -20.21484,-48.16406 -20.74219,48.16406 40.95703,0 z"
         id="path4400"
         inkscape:connector-curvature="0"
         style="fill:#820000;fill-opacity:1;stroke:#000000;stroke-opacity:0.2238806" />
      <path
         d="m 496.37871,668.8416 2.90039,0.61523 -10.19531,32.34375 -92.28516,0 0,-3.25195 4.48243,0 q 7.55859,0 10.81054,-4.92188 1.84571,-2.8125 1.84571,-13.00781 l 0,-76.90429 q 0,-11.16211 -2.46094,-13.97461 -3.42774,-3.86719 -10.19531,-3.86719 l -4.48243,0 0,-3.25195 53.96485,0 0,3.25195 q -9.49219,-0.0879 -13.35938,1.75781 -3.77929,1.8457 -5.18554,4.6582 -1.40625,2.8125 -1.40625,13.44727 l 0,74.88281 q 0,7.29492 1.40625,10.01953 1.05468,1.84571 3.25195,2.72461 2.19726,0.87891 13.71094,0.87891 l 8.70117,0 q 13.71094,0 19.24804,-2.02149 5.53711,-2.02148 10.10743,-7.11914 4.57031,-5.18554 9.14062,-16.25976 z"
         id="path4402"
         inkscape:connector-curvature="0"
         style="fill:#820000;fill-opacity:1;stroke:#000000;stroke-opacity:0.2238806" />
      <path
         d="m 606.41777,668.8416 2.90039,0.61523 -10.19531,32.34375 -92.28515,0 0,-3.25195 4.48242,0 q 7.55859,0 10.81054,-4.92188 1.84571,-2.8125 1.84571,-13.00781 l 0,-76.90429 q 0,-11.16211 -2.46094,-13.97461 -3.42773,-3.86719 -10.19531,-3.86719 l -4.48242,0 0,-3.25195 53.96484,0 0,3.25195 q -9.49219,-0.0879 -13.35938,1.75781 -3.77929,1.8457 -5.18554,4.6582 -1.40625,2.8125 -1.40625,13.44727 l 0,74.88281 q 0,7.29492 1.40625,10.01953 1.05469,1.84571 3.25195,2.72461 2.19727,0.87891 13.71094,0.87891 l 8.70117,0 q 13.71094,0 19.24805,-2.02149 5.53711,-2.02148 10.10742,-7.11914 4.57031,-5.18554 9.14062,-16.25976 z"
         id="path4404"
         inkscape:connector-curvature="0"
         style="fill:#820000;fill-opacity:1;stroke:#000000;stroke-opacity:0.2238806" />
      <path
         d="m 681.12481,582.6209 41.57226,0 0,3.25195 -2.28516,0 q -2.28515,0 -6.67968,2.02148 -4.39453,2.02149 -7.99805,5.80078 -3.60352,3.7793 -8.87695,12.30469 l -28.74024,45.26367 0,29.88282 q 0,10.98632 2.46094,13.71093 3.33984,3.69141 10.54688,3.69141 l 3.86718,0 0,3.25195 -50.625,0 0,-3.25195 4.21875,0 q 7.5586,0 10.72266,-4.57031 1.93359,-2.8125 1.93359,-12.83203 l 0,-28.21289 -32.69531,-49.92188 q -5.80078,-8.78906 -7.91016,-10.98633 -2.02148,-2.19726 -8.52539,-5.27344 -1.75781,-0.8789 -5.09765,-0.8789 l 0,-3.25195 50.97656,0 0,3.25195 -2.63672,0 q -4.13086,0 -7.64648,1.93359 -3.42774,1.9336 -3.42774,5.80078 0,3.16407 5.36133,11.42578 l 24.87305,38.40821 23.3789,-36.73828 q 5.27344,-8.26172 5.27344,-12.30469 0,-2.46094 -1.31836,-4.39453 -1.23047,-1.9336 -3.60351,-2.98828 -2.37305,-1.14258 -7.11914,-1.14258 l 0,-3.25195 z"
         id="path4406"
         inkscape:connector-curvature="0"
         style="fill:#820000;fill-opacity:1;stroke:#000000;stroke-opacity:0.2238806" />
      <path
         d="m 60.529102,860.17949 q 11.689453,-16.25977 25.22461,-16.25977 12.392578,0 21.621098,10.63477 9.22851,10.54687 9.22851,28.91601 0,21.44532 -14.23828,34.54102 -12.216797,11.25 -27.246094,11.25 -7.03125,0 -14.326172,-2.54883 -7.207031,-2.54883 -14.765625,-7.64648 l 0,-83.40821 q 0,-13.71093 -0.703125,-16.875 -0.615234,-3.16406 -2.021484,-4.30664 -1.40625,-1.14257 -3.515625,-1.14257 -2.460938,0 -6.152344,1.40625 l -1.230469,-3.07618 24.169922,-9.84375 3.955078,0 0,58.35938 z m 0,5.625 0,48.16406 q 4.482422,4.39453 9.228516,6.67969 4.833984,2.19726 9.84375,2.19726 7.998047,0 14.853516,-8.78906 6.943356,-8.78906 6.943356,-25.57617 0,-15.46875 -6.943356,-23.73047 -6.855469,-8.34961 -15.644532,-8.34961 -4.658203,0 -9.316406,2.37305 -3.515625,1.75781 -8.964844,7.03125 z"
         id="path4408"
         inkscape:connector-curvature="0"
         style="fill:#820000;fill-opacity:1;stroke:#000000;stroke-opacity:0.2238806" />
      <path
         d="m 148.94707,801.82011 q 3.69141,0 6.24024,2.63672 2.63671,2.54883 2.63671,6.24024 0,3.6914 -2.63671,6.32812 -2.54883,2.63672 -6.24024,2.63672 -3.69141,0 -6.32812,-2.63672 -2.63672,-2.63672 -2.63672,-6.32812 0,-3.69141 2.54883,-6.24024 2.63671,-2.63672 6.41601,-2.63672 z m 7.29492,42.09961 0,64.6875 q 0,7.5586 1.05469,10.10743 1.14258,2.46093 3.25195,3.6914 2.19727,1.23047 7.91016,1.23047 l 0,3.16406 -39.11133,0 0,-3.16406 q 5.88867,0 7.91016,-1.14258 2.02148,-1.14258 3.16406,-3.77929 1.23047,-2.63672 1.23047,-10.10743 l 0,-31.02539 q 0,-13.0957 -0.79102,-16.96289 -0.61523,-2.8125 -1.93359,-3.86719 -1.31836,-1.14257 -3.60352,-1.14257 -2.46093,0 -5.97656,1.31836 l -1.23047,-3.16407 24.25782,-9.84375 3.86718,0 z"
         id="path4410"
         inkscape:connector-curvature="0"
         style="fill:#820000;fill-opacity:1;stroke:#000000;stroke-opacity:0.2238806" />
      <path
         d="m 199.92363,897.44511 q -7.38281,-3.60351 -11.33789,-10.01953 -3.95508,-6.5039 -3.95508,-14.32617 0,-11.95312 8.96485,-20.56641 9.05273,-8.61328 23.11523,-8.61328 11.51367,0 19.95117,5.625 l 17.05079,0 q 3.77929,0 4.39453,0.26368 0.61523,0.17578 0.8789,0.70312 0.52735,0.79102 0.52735,2.8125 0,2.28516 -0.43946,3.16406 -0.26367,0.43946 -0.96679,0.70313 -0.61524,0.26367 -4.39453,0.26367 l -10.45899,0 q 4.92188,6.32812 4.92188,16.17187 0,11.25 -8.61328,19.24805 -8.61329,7.99805 -23.11524,7.99805 -5.97656,0 -12.2168,-1.75781 -3.86718,3.33984 -5.27343,5.88867 -1.31836,2.46094 -1.31836,4.21875 0,1.49414 1.40625,2.90039 1.49414,1.40625 5.71289,2.02148 2.46094,0.35157 12.30469,0.61524 18.10546,0.43945 23.46679,1.23047 8.17383,1.14257 13.00781,6.06445 4.92188,4.92187 4.92188,12.12891 0,9.93164 -9.31641,18.63281 -13.71093,12.83203 -35.77148,12.83203 -16.96289,0 -28.65234,-7.64649 -6.5918,-4.39453 -6.5918,-9.14062 0,-2.10938 0.9668,-4.21875 1.49414,-3.25195 6.15234,-9.05273 0.61523,-0.79102 8.96484,-9.49219 -4.57031,-2.72461 -6.5039,-4.83399 -1.84571,-2.19726 -1.84571,-4.92187 0,-3.07617 2.46094,-7.20703 2.54883,-4.13086 11.60156,-11.68946 z m 15.29297,-49.30664 q -6.5039,0 -10.89844,5.18555 -4.39453,5.18555 -4.39453,15.9082 0,13.88672 5.97657,21.53321 4.57031,5.80078 11.60156,5.80078 6.67969,0 10.98633,-5.00977 4.30664,-5.00976 4.30664,-15.73242 0,-13.97461 -6.06446,-21.88477 -4.48242,-5.80078 -11.51367,-5.80078 z m -16.17187,78.66211 q -4.13086,4.48242 -6.24024,8.34961 -2.10937,3.86719 -2.10937,7.11914 0,4.21875 5.09765,7.38282 8.78907,5.44921 25.40039,5.44921 15.82032,0 23.29102,-5.625 7.55859,-5.53711 7.55859,-11.86523 0,-4.57031 -4.48242,-6.50391 -4.57031,-1.93359 -18.10547,-2.28515 -19.77539,-0.52735 -30.41015,-2.02149 z"
         id="path4412"
         inkscape:connector-curvature="0"
         style="fill:#820000;fill-opacity:1;stroke:#000000;stroke-opacity:0.2238806" />
      <path
         d="m 336.76934,819.83769 0,26.45508 18.80859,0 0,6.15234 -18.80859,0 0,52.20704 q 0,7.82226 2.19726,10.54687 2.28516,2.72461 5.80078,2.72461 2.90039,0 5.625,-1.75781 2.72461,-1.84571 4.21875,-5.36133 l 3.42774,0 q -3.07617,8.61328 -8.70117,13.00781 -5.625,4.30664 -11.60157,4.30664 -4.04297,0 -7.91015,-2.19726 -3.86719,-2.28516 -5.71289,-6.41602 -1.84571,-4.21875 -1.84571,-12.91992 l 0,-54.14063 -12.74414,0 0,-2.90039 q 4.83399,-1.93359 9.84375,-6.5039 5.09766,-4.65821 9.05274,-10.98633 2.02148,-3.33984 5.625,-12.2168 l 2.72461,0 z"
         id="path4414"
         inkscape:connector-curvature="0"
         style="fill:#820000;fill-opacity:1;stroke:#000000;stroke-opacity:0.2238806" />
      <path
         d="m 376.84746,876.61504 q -0.0879,17.92968 8.70117,28.125 8.78907,10.19531 20.6543,10.19531 7.91016,0 13.71094,-4.30664 5.88867,-4.39453 9.84375,-14.94141 l 2.72461,1.75781 q -1.84571,12.04102 -10.72266,21.97266 -8.87695,9.84375 -22.23633,9.84375 -14.50195,0 -24.87304,-11.25 -10.28321,-11.33789 -10.28321,-30.41016 0,-20.65429 10.54688,-32.16796 10.63476,-11.60157 26.63086,-11.60157 13.53515,0 22.23633,8.96485 8.70117,8.87695 8.70117,23.81836 l -55.63477,0 z m 0,-5.09766 37.26563,0 q -0.43946,-7.73438 -1.84571,-10.89844 -2.19726,-4.92187 -6.59179,-7.73437 -4.30664,-2.8125 -9.05274,-2.8125 -7.29492,0 -13.0957,5.71289 -5.71289,5.625 -6.67969,15.73242 z"
         id="path4416"
         inkscape:connector-curvature="0"
         style="fill:#820000;fill-opacity:1;stroke:#000000;stroke-opacity:0.2238806" />
      <path
         d="m 439.86504,846.29277 37.88086,0 0,3.25195 q -3.60352,0 -5.09766,1.23047 -1.40625,1.23047 -1.40625,3.25196 0,2.10937 3.07617,6.5039 0.9668,1.40625 2.9004,4.39453 l 5.71289,9.14063 6.59179,-9.14063 q 6.32813,-8.70117 6.32813,-10.98633 0,-1.8457 -1.49414,-3.07617 -1.49414,-1.31836 -4.83399,-1.31836 l 0,-3.25195 27.2461,0 0,3.25195 q -4.30664,0.26368 -7.47071,2.37305 -4.30664,2.98828 -11.77734,13.00781 l -10.98633,14.67774 20.03906,28.82812 q 7.38282,10.63477 10.54688,12.83203 3.16406,2.10938 8.17383,2.37305 l 0,3.16406 -37.96875,0 0,-3.16406 q 3.95508,0 6.15234,-1.75781 1.66992,-1.23047 1.66992,-3.25196 0,-2.02148 -5.625,-10.19531 l -11.77734,-17.22656 -12.91992,17.22656 q -5.97657,7.99805 -5.97657,9.49219 0,2.10937 1.9336,3.86719 2.02148,1.66992 5.97656,1.8457 l 0,3.16406 -26.2793,0 0,-3.16406 q 3.16407,-0.43945 5.53711,-2.19727 3.33985,-2.54882 11.25,-13.00781 l 16.875,-22.41211 -15.29297,-22.14843 q -6.5039,-9.49219 -10.10742,-11.86524 -3.51562,-2.46094 -8.87695,-2.46094 l 0,-3.25195 z"
         id="path4418"
         inkscape:connector-curvature="0"
         style="fill:#820000;fill-opacity:1;stroke:#000000;stroke-opacity:0.2238806" />
      <path
         d="m 556.4959,819.83769 0,26.45508 18.80859,0 0,6.15234 -18.80859,0 0,52.20704 q 0,7.82226 2.19726,10.54687 2.28516,2.72461 5.80079,2.72461 2.90039,0 5.625,-1.75781 2.72461,-1.84571 4.21875,-5.36133 l 3.42773,0 q -3.07617,8.61328 -8.70117,13.00781 -5.625,4.30664 -11.60156,4.30664 -4.04297,0 -7.91016,-2.19726 -3.86719,-2.28516 -5.71289,-6.41602 -1.8457,-4.21875 -1.8457,-12.91992 l 0,-54.14063 -12.74414,0 0,-2.90039 q 4.83398,-1.93359 9.84375,-6.5039 5.09765,-4.65821 9.05273,-10.98633 2.02148,-3.33984 5.625,-12.2168 l 2.72461,0 z"
         id="path4420"
         inkscape:connector-curvature="0"
         style="fill:#820000;fill-opacity:1;stroke:#000000;stroke-opacity:0.2238806" />
      <path
         d="m 609.05449,895.24785 -3.33984,0 -7.73438,-71.19141 q -0.52734,-4.6582 -0.52734,-6.94336 0,-5.53711 2.90039,-8.87695 2.98828,-3.33984 7.11914,-3.33984 4.13086,0 6.94336,3.33984 2.90039,3.33984 2.90039,9.93164 0,2.10938 -0.35156,5.88867 l -7.91016,71.19141 z m -1.75781,14.58984 q 4.04297,0 6.85547,2.90039 2.90039,2.8125 2.90039,6.76758 0,4.04297 -2.90039,6.94336 -2.8125,2.8125 -6.85547,2.8125 -4.04297,0 -6.94336,-2.8125 -2.8125,-2.90039 -2.8125,-6.94336 0,-3.95508 2.8125,-6.76758 2.90039,-2.90039 6.94336,-2.90039 z"
         id="path4422"
         inkscape:connector-curvature="0"
         style="fill:#820000;fill-opacity:1;stroke:#000000;stroke-opacity:0.2238806" />
    </g>
  </g>
</svg>
